<?xml version="1.0" encoding="utf-8"?><!-- Uploaded to: SVG Repo, www.svgrepo.com, Generator: SVG Repo Mixer Tools -->
<svg fill="#000000" width="800px" height="800px" viewBox="0 0 256 256" id="Flat" xmlns="http://www.w3.org/2000/svg">
  <path d="M83.99951,87.99353h-.00012l-44-.001a4,4,0,0,1,.00012-8h.00012l44,.001a4,4,0,0,1-.00012,8Zm136,84a4.00019,4.00019,0,0,1-4,4H191.65967a23.99507,23.99507,0,0,1-47.32031,0H39.99951a4,4,0,0,1,0-8H144.33936a23.99507,23.99507,0,0,1,47.32031,0h24.33984A4.0002,4.0002,0,0,1,219.99951,171.99353Zm-36,0a16,16,0,1,0-16,16A16.01833,16.01833,0,0,0,183.99951,171.99353Zm-104-88a23.99775,23.99775,0,0,1,47.66016-4l88.33984-.001a4,4,0,0,1,0,8l-88.33984.001a23.99775,23.99775,0,0,1-47.66016-4Zm8,0a16,16,0,1,0,16-16A16.01833,16.01833,0,0,0,87.99951,83.99353Z"/>
</svg>